HIERARCHY
ROOT Pelvis
{
	OFFSET 0.000000 0.941512 0.000000
	CHANNELS 6 Xposition Yposition Zposition Zrotation Yrotation Xrotation 
	JOINT Pelvis_L_Hip
	{
		OFFSET 0.000000 0.000000 0.000000
		CHANNELS 3 Zrotation Yrotation Xrotation
		JOINT L_Hip
		{
			OFFSET 0.062321 -0.080322 -0.016990
			CHANNELS 3 Zrotation Yrotation Xrotation
			JOINT L_Knee
			{
				OFFSET 0.093051 -0.381305 -0.029784
				CHANNELS 3 Zrotation Yrotation Xrotation
				JOINT L_Ankle
				{
					OFFSET -0.010371 -0.431000 -0.033614
					CHANNELS 3 Zrotation Yrotation Xrotation
					End Site #name: L_Foot
					{
						OFFSET 0.069299 -0.038670 0.119418
					}
				}
			}
		}
	}
	JOINT Pelvis_R_Hip
	{
		OFFSET 0.000000 0.000000 0.000000
		CHANNELS 3 Zrotation Yrotation Xrotation
		JOINT R_Hip
		{
			OFFSET -0.055334 -0.094904 -0.002373
			CHANNELS 3 Zrotation Yrotation Xrotation
			JOINT R_Knee
			{
				OFFSET -0.064207 -0.384370 -0.019592
				CHANNELS 3 Zrotation Yrotation Xrotation
				JOINT R_Ankle
				{
					OFFSET 0.025418 -0.419734 -0.065953
					CHANNELS 3 Zrotation Yrotation Xrotation
					End Site #name: R_Foot
					{
						OFFSET -0.057233 -0.039888 0.132134
					}
				}
			}
		}
	}
	JOINT Pelvis_Spine1
	{
		OFFSET 0.000000 0.000000 0.000000
		CHANNELS 3 Zrotation Yrotation Xrotation
		JOINT Spine1
		{
			OFFSET -0.005562 0.124093 -0.043360
			CHANNELS 3 Zrotation Yrotation Xrotation
			JOINT Spine2
			{
				OFFSET 0.012244 0.139499 0.029894
				CHANNELS 3 Zrotation Yrotation Xrotation
				JOINT Spine3
				{
					OFFSET -0.002556 0.056561 0.009225
					CHANNELS 3 Zrotation Yrotation Xrotation
					JOINT Spine3_Neck
					{
						OFFSET 0.000000 0.000000 0.000000
						CHANNELS 3 Zrotation Yrotation Xrotation
						JOINT Neck
						{
							OFFSET -0.005205 0.217920 -0.024551
							CHANNELS 3 Zrotation Yrotation Xrotation
							End Site #name: Head
							{
								OFFSET 0.002365 0.091850 0.046637
							}
						}
					}
					JOINT Spine3_L_Collar
					{
						OFFSET 0.000000 0.000000 0.000000
						CHANNELS 3 Zrotation Yrotation Xrotation
						JOINT L_Collar
						{
							OFFSET 0.072225 0.116603 -0.009480
							CHANNELS 3 Zrotation Yrotation Xrotation
							JOINT L_Shoulder
							{
								OFFSET 0.115937 -0.058643 -0.021018
								CHANNELS 3 Zrotation Yrotation Xrotation
								JOINT L_Elbow
								{
									OFFSET 0.021994 -0.254722 -0.024492
									CHANNELS 3 Zrotation Yrotation Xrotation
									End Site #name: L_Wrist
									{
										OFFSET 0.048810 -0.240214 0.103329
									}
								}
							}
						}
					}
					JOINT Spine3_R_Collar
					{
						OFFSET 0.000000 0.000000 0.000000
						CHANNELS 3 Zrotation Yrotation Xrotation
						JOINT R_Collar
						{
							OFFSET -0.073372 0.120704 -0.024611
							CHANNELS 3 Zrotation Yrotation Xrotation
							JOINT R_Shoulder
							{
								OFFSET -0.108089 -0.054969 -0.020504
								CHANNELS 3 Zrotation Yrotation Xrotation
								JOINT R_Elbow
								{
									OFFSET -0.033684 -0.260739 0.009889
									CHANNELS 3 Zrotation Yrotation Xrotation
									End Site #name: R_Wrist
									{
										OFFSET -0.067980 -0.232763 0.118463
									}
								}
							}
						}
					}
				}
			}
		}
	}
}
MOTION
Frames: 13
Frame Time: 0.041667
0.000000 0.959142 0.000000 -2.019227 -2.688147 6.574561 0.000000 0.000000 0.000000 -7.544234 -0.735046 -4.533747 8.946016 -0.433733 -2.722274 -5.782844 -12.367703 3.120956 0.000000 0.000000 0.000000 6.844402 0.559392 -4.393552 -5.488990 0.155640 -6.422325 2.655064 3.027149 3.658529 0.000000 0.000000 0.000000 6.581394 0.842193 -16.013204 -7.637031 5.312077 31.173135 5.736789 3.197080 -24.750713 0.000000 0.000000 0.000000 0.034918 -0.299075 10.727990 0.000000 0.000000 0.000000 22.662822 -7.259103 -1.327767 -22.070354 2.857059 5.245247 -3.484395 -0.870511 2.634690 0.000000 0.000000 0.000000 -22.190828 5.831175 0.190976 19.751331 -3.085752 14.750457 4.968880 1.874974 1.944704 
-0.000828 0.958931 -0.000200 -2.024341 -2.665601 6.556771 0.000000 0.000000 0.000000 -7.492184 -0.752953 -4.582260 8.981146 -0.442568 -2.654589 -5.870044 -12.346586 3.264290 0.000000 0.000000 0.000000 6.877613 0.539485 -4.309334 -5.484291 0.139652 -6.569047 2.784037 3.140032 3.850942 0.000000 0.000000 0.000000 6.585893 0.824864 -15.897407 -7.748820 5.312532 30.842996 5.772595 3.228568 -24.550139 0.000000 0.000000 0.000000 0.024232 -0.290865 10.599879 0.000000 0.000000 0.000000 22.773073 -7.451241 -1.459945 -22.289130 2.897772 5.280234 -3.463766 -0.874188 2.585807 0.000000 0.000000 0.000000 -22.405774 6.078078 0.030493 20.091402 -3.128345 14.804021 4.910113 1.833429 1.980023 
-0.001843 0.958947 -0.000501 -1.991194 -2.655720 6.527531 0.000000 0.000000 0.000000 -7.469142 -0.775990 -4.650942 8.983700 -0.458576 -2.502445 -5.810470 -12.296286 3.196336 0.000000 0.000000 0.000000 6.871040 0.526066 -4.248461 -5.432792 0.126362 -6.646658 2.807435 3.192871 3.864285 0.000000 0.000000 0.000000 6.522648 0.827451 -15.877355 -7.783328 5.331878 30.870374 5.766555 3.252497 -24.520161 0.000000 0.000000 0.000000 0.062341 -0.310524 10.454208 0.000000 0.000000 0.000000 22.685363 -7.458741 -1.472705 -22.241076 2.878591 5.229422 -3.432384 -0.923370 2.326766 0.000000 0.000000 0.000000 -22.363416 6.122076 -0.016908 20.110909 -3.124193 14.783794 4.850493 1.837661 1.882603 
-0.002886 0.958659 -0.000697 -1.960997 -2.592207 6.555379 0.000000 0.000000 0.000000 -7.419918 -0.833583 -4.830742 8.969853 -0.478672 -2.298856 -5.854863 -12.305555 3.258090 0.000000 0.000000 0.000000 6.911125 0.520970 -4.231380 -5.417184 0.111522 -6.773567 2.820519 3.154635 3.920185 0.000000 0.000000 0.000000 6.430678 0.852892 -16.000101 -7.773529 5.342702 31.007721 5.776761 3.289268 -24.453797 0.000000 0.000000 0.000000 0.112536 -0.339321 10.324698 0.000000 0.000000 0.000000 22.698510 -7.546296 -1.529419 -22.235526 2.844205 5.108717 -3.486401 -1.124095 1.583895 0.000000 0.000000 0.000000 -22.341592 6.263418 -0.143010 20.090386 -3.118246 14.761511 4.725250 1.786943 1.848322 
-0.003823 0.958253 -0.000627 -1.936103 -2.450073 6.672027 0.000000 0.000000 0.000000 -7.382531 -0.899774 -5.046383 8.997474 -0.489466 -2.206161 -5.902223 -12.380085 3.291353 0.000000 0.000000 0.000000 6.942302 0.530831 -4.281274 -5.400740 0.095809 -6.910552 2.835723 3.156077 3.957716 0.000000 0.000000 0.000000 6.268884 0.901652 -16.250096 -7.719623 5.299658 30.967013 5.817878 3.338575 -24.364079 0.000000 0.000000 0.000000 0.307293 -0.459700 10.407234 0.000000 0.000000 0.000000 22.876398 -7.587796 -1.518838 -22.353034 2.846298 5.065746 -3.801014 -1.618950 0.110451 0.000000 0.000000 0.000000 -22.310293 6.279751 -0.179476 20.111937 -3.120074 14.750059 4.241114 1.556944 1.812908 
-0.004633 0.957909 -0.000212 -1.951383 -2.246339 6.805723 0.000000 0.000000 0.000000 -7.308347 -0.951701 -5.213622 9.051791 -0.491421 -2.209638 -5.957927 -12.543960 3.292842 0.000000 0.000000 0.000000 7.020953 0.532382 -4.300229 -5.404692 0.080332 -7.065850 2.828550 3.176996 3.938918 0.000000 0.000000 0.000000 6.041299 0.959244 -16.529408 -7.590600 5.195668 30.788796 5.908455 3.350306 -24.305627 0.000000 0.000000 0.000000 0.681490 -0.683903 10.493159 0.000000 0.000000 0.000000 22.852889 -7.285293 -1.263648 -22.365724 2.851806 5.070670 -4.033169 -2.303776 -2.199352 0.000000 0.000000 0.000000 -21.904183 5.697187 0.190601 19.842595 -3.016485 14.457884 2.788900 1.019879 1.243152 
-0.005265 0.957571 0.000197 -2.042606 -2.068907 6.812416 0.000000 0.000000 0.000000 -7.154375 -0.951183 -5.193609 9.122798 -0.488684 -2.267969 -6.074451 -12.858409 3.316442 0.000000 0.000000 0.000000 7.211252 0.515958 -4.247961 -5.449482 0.081482 -7.099566 2.780149 3.174322 3.848894 0.000000 0.000000 0.000000 5.828775 0.989038 -16.617788 -7.289346 5.027539 30.703017 6.050312 3.319522 -24.432948 0.000000 0.000000 0.000000 0.940364 -0.843493 10.700348 0.000000 0.000000 0.000000 22.874383 -6.914313 -0.958430 -22.661354 2.839587 4.932425 -4.086595 -2.963698 -4.657087 0.000000 0.000000 0.000000 -21.668789 4.831772 0.817714 19.433526 -2.746283 13.657715 0.599722 0.514239 -0.685644 
-0.005477 0.957597 0.000226 -2.141938 -2.045030 6.725753 0.000000 0.000000 0.000000 -7.046507 -0.916114 -5.060526 9.222358 -0.489396 -2.312998 -6.165320 -13.056669 3.360109 0.000000 0.000000 0.000000 7.348649 0.494225 -4.165079 -5.476729 0.090135 -7.042827 2.815883 3.322742 3.823967 0.000000 0.000000 0.000000 5.781084 0.986305 -16.563894 -7.005127 4.865520 30.509072 6.081030 3.129887 -24.520659 0.000000 0.000000 0.000000 1.229086 -1.011549 10.901885 0.000000 0.000000 0.000000 23.108584 -6.862407 -0.908333 -23.089634 2.870693 4.886523 -4.129903 -3.528134 -6.714924 0.000000 0.000000 0.000000 -22.077095 4.164628 1.446491 19.047396 -2.273894 12.170068 -1.397064 0.450305 -4.030376 
-0.005576 0.957749 0.000009 -2.160623 -2.170385 6.730112 0.000000 0.000000 0.000000 -7.054502 -0.916941 -5.062281 9.307536 -0.498401 -2.282776 -6.186742 -13.068835 3.391986 0.000000 0.000000 0.000000 7.379234 0.508092 -4.230112 -5.518723 0.101508 -6.970656 2.899607 3.526912 3.853842 0.000000 0.000000 0.000000 5.802878 0.999282 -16.670814 -6.883752 4.805456 30.411768 6.027811 2.899046 -24.664085 0.000000 0.000000 0.000000 1.498764 -1.167542 11.191708 0.000000 0.000000 0.000000 23.375782 -7.237371 -1.215935 -23.275857 2.930630 5.032086 -4.254334 -3.971561 -8.123415 0.000000 0.000000 0.000000 -22.907355 3.740078 1.999685 19.024366 -1.833616 10.736083 -3.635692 0.755986 -9.605489 
-0.005657 0.957783 -0.000250 -2.098088 -2.374397 6.769959 0.000000 0.000000 0.000000 -7.155347 -0.927134 -5.108062 9.373223 -0.508799 -2.228057 -6.176634 -13.067259 3.383601 0.000000 0.000000 0.000000 7.311969 0.539266 -4.361469 -5.561154 0.115068 -6.876784 2.975531 3.767338 3.839472 0.000000 0.000000 0.000000 5.849460 1.021872 -16.863808 -6.858738 4.817145 30.461969 5.841260 2.616317 -24.850490 0.000000 0.000000 0.000000 1.787045 -1.329200 11.412609 0.000000 0.000000 0.000000 23.482930 -7.630663 -1.572916 -23.073902 2.966025 5.240706 -4.409364 -4.300835 -9.017971 0.000000 0.000000 0.000000 -23.722333 3.290170 2.596076 18.990888 -1.346592 9.152830 -6.060121 1.028786 -16.237368 
-0.005644 0.957549 -0.000392 -2.046904 -2.567657 6.750286 0.000000 0.000000 0.000000 -7.255307 -0.916067 -5.082062 9.447731 -0.515769 -2.212511 -6.177578 -13.082370 3.384425 0.000000 0.000000 0.000000 7.232944 0.555559 -4.425233 -5.581017 0.127263 -6.775478 3.058601 4.017238 3.834461 0.000000 0.000000 0.000000 5.943118 1.028344 -16.961752 -6.878629 4.842271 30.466299 5.609016 2.358252 -25.073741 0.000000 0.000000 0.000000 2.019582 -1.456310 11.542434 0.000000 0.000000 0.000000 23.403787 -7.891993 -1.841926 -22.753440 2.999472 5.493211 -4.323988 -4.339806 -9.320898 0.000000 0.000000 0.000000 -24.343902 2.947082 3.069369 18.845513 -0.919771 7.767239 -8.567779 0.982300 -22.869405 
-0.005518 0.957331 -0.000339 -2.013959 -2.671085 6.644173 0.000000 0.000000 0.000000 -7.360788 -0.885242 -4.991387 9.555445 -0.526270 -2.175912 -6.201087 -13.140258 3.395832 0.000000 0.000000 0.000000 7.179081 0.547184 -4.379450 -5.601136 0.139735 -6.675836 3.117708 4.191674 3.835372 0.000000 0.000000 0.000000 6.020702 1.034733 -17.041621 -6.905771 4.880747 30.593530 5.429458 2.120414 -25.184767 0.000000 0.000000 0.000000 2.330393 -1.621088 11.414974 0.000000 0.000000 0.000000 23.248139 -8.095729 -2.061372 -22.506185 3.052833 5.773877 -4.031085 -4.175872 -9.297966 0.000000 0.000000 0.000000 -24.812507 2.641069 3.473693 18.482824 -0.561015 6.569571 -10.587838 0.775250 -28.363215 
-0.005534 0.957215 -0.000447 -1.980276 -2.651472 6.423919 0.000000 0.000000 0.000000 -7.409638 -0.841489 -4.847371 9.591958 -0.540807 -2.060089 -6.245691 -13.296598 3.388358 0.000000 0.000000 0.000000 7.158102 0.521842 -4.255642 -5.629060 0.164889 -6.467827 3.092314 4.207881 3.774222 0.000000 0.000000 0.000000 6.033575 1.022883 -16.951771 -6.881115 4.919987 30.967384 5.238691 1.868973 -25.280478 0.000000 0.000000 0.000000 2.710728 -1.811092 10.933121 0.000000 0.000000 0.000000 23.152431 -8.383593 -2.328776 -22.321721 3.129683 6.113907 -3.664024 -3.947737 -9.187192 0.000000 0.000000 0.000000 -25.213685 2.475848 3.737530 18.097343 -0.359320 5.869209 -11.824488 0.700789 -32.323607 
